<svg width="702" height="813" viewBox="0 0 702 813" fill="none" xmlns="http://www.w3.org/2000/svg">
<path d="M190.573 787.728C201.096 708.398 230.376 634.858 246.928 557.064C270.052 448.381 267.242 333.7 267.242 223.301C267.242 178.53 272.727 172.223 267.242 127.612C256.005 102.112 248.005 93.1121 226.505 71.6121C218.98 60.2106 170.35 31.9969 155.005 37.1121C125.505 37.1121 56.4205 37.2385 42 57.1121C26.0638 79.0746 28.0503 90.8402 23 118.112C30 162.112 49 167.112 80.5 182.112C107.233 197.25 178.793 187.412 208.047 187.26C283.969 186.868 360.539 177.848 432.813 153.84C508.572 128.675 576.322 86.6032 644.145 45.4984C655.069 38.878 665.97 32.1722 676.801 25.4027C680.132 23.3206 679.11 23 676.145 23" stroke="black" stroke-width="45" stroke-linecap="round"/>
<path d="M440.085 620.628C440.085 586.447 439.674 570.29 440.085 536.112C440.442 506.554 446.094 464.68 451.999 435.612C458.15 405.34 465.298 370.371 477.764 342.237C496.547 299.849 501.198 274.414 534.5 241.112C549.736 225.876 585.579 209.663 601.724 221.336C636.593 246.545 653.631 294.13 660.81 334.811C660.81 392.612 660.81 450.112 660.81 510.112C655.775 549.83 657.236 579.612 653.5 620.628C649.764 661.644 642.134 732.612 642.134 789.612" stroke="#F6E05E" stroke-width="45" stroke-linecap="round"/>
<path d="M265.283 477.119C349.762 477.119 433.352 463.225 514.95 441.296C545.39 433.115 573.663 426.589 603.415 416.176" stroke="black" stroke-width="45" stroke-linecap="round"/>
</svg>
