<svg width="1382" height="709" viewBox="0 0 1382 709" fill="none" xmlns="http://www.w3.org/2000/svg">
<path d="M27.5 125.5H178C178 146.5 174.5 162.333 167.5 173C160.833 183.333 148.833 188.5 131.5 188.5H101V530.5H132C149 530.5 160.833 535.833 167.5 546.5C174.5 557.167 178 572.833 178 593.5H27.5V125.5Z" fill="#F6E05E"/>
<path d="M234.812 207.896C250.438 209.198 264.109 209.979 275.828 210.24C287.807 210.5 297.964 210.63 306.297 210.63C315.932 210.63 324.266 210.37 331.297 209.849C338.589 209.068 348.094 208.026 359.812 206.724C369.708 205.422 382.469 203.729 398.094 201.646C413.719 199.302 432.729 196.307 455.125 192.661C452.26 197.089 449.786 201.776 447.703 206.724C445.88 211.411 444.318 215.708 443.016 219.615C441.714 224.302 440.542 228.859 439.5 233.286C438.719 238.234 437.807 244.354 436.766 251.646C435.724 257.896 434.422 265.839 432.859 275.474C431.557 284.849 429.865 296.047 427.781 309.068C419.969 288.755 412.026 273.13 403.953 262.193C396.141 251.255 388.849 243.182 382.078 237.974C374.266 231.984 366.844 228.599 359.812 227.818C349.656 227.818 341.323 229.771 334.812 233.677C328.302 237.583 322.964 242.661 318.797 248.911C314.891 254.901 311.896 261.542 309.812 268.833C307.729 275.865 306.297 282.766 305.516 289.536C304.734 296.047 304.214 301.906 303.953 307.115C303.693 312.063 303.432 315.448 303.172 317.271C312.286 316.75 319.969 316.099 326.219 315.318C332.469 314.536 337.417 313.755 341.062 312.974C345.49 311.932 349.005 310.891 351.609 309.849C355.516 307.766 359.422 305.292 363.328 302.427C366.714 299.823 370.229 296.698 373.875 293.052C377.781 289.406 381.167 284.979 384.031 279.771C382.469 289.146 381.036 296.958 379.734 303.208C378.693 309.458 377.781 314.406 377 318.052C375.958 322.479 375.307 325.865 375.047 328.208C374.526 330.552 373.875 333.807 373.094 337.974C372.312 341.62 371.401 346.307 370.359 352.036C369.318 357.766 368.146 364.927 366.844 373.521C363.719 368.052 360.464 363.625 357.078 360.24C353.693 356.594 350.568 353.729 347.703 351.646C344.318 349.302 341.062 347.479 337.938 346.177C334.552 345.135 330.906 344.094 327 343.052C323.615 342.271 319.578 341.49 314.891 340.708C310.464 339.667 305.646 338.755 300.438 337.974C300.958 352.036 301.74 364.146 302.781 374.302C303.823 384.198 304.734 392.531 305.516 399.302C306.557 407.115 307.599 413.625 308.641 418.833C309.943 424.042 312.026 429.641 314.891 435.63C317.234 440.839 320.49 446.828 324.656 453.599C329.083 460.109 334.682 467.141 341.453 474.693C336.245 473.391 330.776 472.479 325.047 471.958C319.318 471.438 314.24 471.047 309.812 470.786C304.344 470.526 299.135 470.526 294.188 470.786C288.979 471.047 283.25 471.568 277 472.349C271.792 472.87 265.802 473.651 259.031 474.693C252.26 475.734 245.099 476.906 237.547 478.208C241.974 473.781 245.62 469.354 248.484 464.927C251.349 460.5 253.432 456.594 254.734 453.208C256.297 449.302 257.339 445.526 257.859 441.88C258.12 438.755 258.25 431.984 258.25 421.568C258.25 410.891 258.12 398.521 257.859 384.458C257.599 370.135 257.208 355.031 256.688 339.146C256.167 323.26 255.646 308.417 255.125 294.615C254.604 280.552 253.953 268.573 253.172 258.677C252.651 248.781 252 242.792 251.219 240.708C250.177 238.104 249.005 235.109 247.703 231.724C245.62 226.255 241.323 218.313 234.812 207.896ZM439.109 302.818L510.984 303.599C506.818 319.484 503.693 333.026 501.609 344.224C499.786 355.422 498.615 364.797 498.094 372.349C497.052 380.943 496.792 388.234 497.312 394.224C498.094 399.693 499.396 405.552 501.219 411.802C502.781 417.01 505.125 423 508.25 429.771C511.375 436.542 515.542 443.313 520.75 450.083C517.625 449.042 514.24 448.26 510.594 447.74C506.948 447.219 503.562 446.828 500.438 446.568C496.792 446.307 493.146 446.307 489.5 446.568C485.854 446.828 481.818 447.219 477.391 447.74C473.745 448.26 469.318 448.911 464.109 449.693C458.901 450.474 453.432 451.516 447.703 452.818C451.609 441.099 454.604 430.943 456.688 422.349C459.031 413.755 460.724 406.594 461.766 400.865C462.807 394.094 463.458 388.625 463.719 384.458C463.719 379.25 463.719 373.391 463.719 366.88C463.719 360.109 463.719 353.599 463.719 347.349C463.719 341.099 463.589 335.63 463.328 330.943C463.068 325.995 462.547 322.87 461.766 321.568L457.859 317.661C456.297 316.359 453.953 314.536 450.828 312.193C447.964 309.589 444.057 306.464 439.109 302.818ZM466.844 242.661C472.312 239.797 477.781 239.016 483.25 240.318C488.979 241.62 493.406 244.094 496.531 247.74C499.656 251.385 500.698 255.682 499.656 260.63C498.875 265.578 494.708 270.396 487.156 275.083C479.604 279.51 472.964 281.073 467.234 279.771C461.505 278.469 457.469 275.734 455.125 271.568C452.781 267.401 452.391 262.583 453.953 257.115C455.516 251.385 459.812 246.568 466.844 242.661ZM543.797 488.365C546.401 484.458 548.484 480.813 550.047 477.427C551.609 474.042 552.911 471.177 553.953 468.833C554.995 465.969 555.776 463.365 556.297 461.021C556.557 459.458 556.688 454.901 556.688 447.349C556.688 439.797 556.427 430.292 555.906 418.833C555.646 407.375 555.255 394.484 554.734 380.161C554.474 365.839 553.953 351.255 553.172 336.411C552.651 321.568 552 307.115 551.219 293.052C550.698 278.99 550.177 266.359 549.656 255.161C549.135 243.703 548.615 234.328 548.094 227.036C547.573 219.745 547.182 215.578 546.922 214.536C546.401 212.974 545.49 211.411 544.188 209.849C541.583 206.724 537.156 203.729 530.906 200.865C544.188 197.479 554.344 194.745 561.375 192.661C565.542 191.62 569.188 190.578 572.312 189.536C575.177 188.495 578.042 187.453 580.906 186.411C583.25 185.37 585.854 184.198 588.719 182.896C591.583 181.333 594.188 179.641 596.531 177.818C595.229 185.37 594.188 192.661 593.406 199.693C592.625 206.724 591.974 213.234 591.453 219.224C590.932 225.995 590.672 232.505 590.672 238.755C589.37 251.516 588.589 265.448 588.328 280.552C588.328 295.396 588.458 310.5 588.719 325.865C588.979 341.229 589.5 356.203 590.281 370.786C591.062 385.37 591.844 398.651 592.625 410.63C593.667 422.349 594.578 432.375 595.359 440.708C596.401 448.781 597.182 453.99 597.703 456.333C598.745 460.24 599.786 464.016 600.828 467.661C601.87 470.786 603.042 474.042 604.344 477.427C605.646 481.073 607.208 483.938 609.031 486.021H571.141C567.755 486.021 564.5 486.151 561.375 486.411C558.51 486.672 555.516 486.932 552.391 487.193C549.266 487.453 546.401 487.844 543.797 488.365ZM618.406 231.333C626.219 232.115 632.729 232.766 637.938 233.286C643.406 233.807 647.833 234.198 651.219 234.458C655.125 234.719 658.25 234.849 660.594 234.849C662.938 235.109 666.062 235.109 669.969 234.849C673.354 234.589 677.781 234.328 683.25 234.068C688.719 233.547 695.62 232.766 703.953 231.724C702.13 234.328 700.698 236.672 699.656 238.755C698.615 240.578 697.703 242.271 696.922 243.833L694.578 248.521C694.057 250.083 693.536 251.646 693.016 253.208C692.495 254.51 691.974 256.073 691.453 257.896C691.193 259.719 690.932 261.672 690.672 263.755H750.828L745.359 295.396L690.281 292.271C688.979 305.552 688.068 315.839 687.547 323.13C687.026 330.422 686.505 335.76 685.984 339.146L685.203 346.177C684.422 356.073 683.641 366.88 682.859 378.599C682.078 390.057 681.818 400.734 682.078 410.63C682.339 420.526 683.25 428.859 684.812 435.63C686.375 442.141 689.109 445.396 693.016 445.396C696.922 445.396 700.568 444.354 703.953 442.271C707.339 440.188 710.203 437.714 712.547 434.849C715.151 431.984 717.104 429.12 718.406 426.255C719.708 423.13 720.359 420.786 720.359 419.224C720.359 417.661 719.969 415.839 719.188 413.755C717.885 409.849 715.542 404.901 712.156 398.911C719.708 400.734 726.349 402.557 732.078 404.38C734.943 405.422 737.547 406.464 739.891 407.505C742.495 408.547 745.49 409.719 748.875 411.021C751.74 412.323 755.385 413.885 759.812 415.708C764.24 417.531 769.448 419.745 775.438 422.349C769.708 423.391 765.542 425.083 762.938 427.427C761.375 428.469 760.203 429.641 759.422 430.943C757.599 433.807 755.516 437.714 753.172 442.661C750.828 447.349 747.312 452.036 742.625 456.724C737.938 461.411 731.557 465.578 723.484 469.224C715.672 472.87 705.125 474.953 691.844 475.474C678.042 475.995 667.495 473.651 660.203 468.443C653.172 463.234 647.964 457.245 644.578 450.474C641.453 443.443 639.63 436.542 639.109 429.771C638.589 423 638.198 418.443 637.938 416.099C637.677 413.755 637.677 407.896 637.938 398.521C638.198 389.146 638.589 378.859 639.109 367.661C639.63 356.203 640.151 345.266 640.672 334.849C641.193 324.172 641.453 316.359 641.453 311.411C641.453 308.807 641.583 306.073 641.844 303.208C641.844 300.865 641.844 298.391 641.844 295.786C642.104 292.922 642.234 290.188 642.234 287.583L585.594 287.193L583.25 264.927L640.281 266.49C639.76 263.625 639.109 261.021 638.328 258.677C637.807 256.073 637.286 253.99 636.766 252.427C635.984 250.604 635.203 249.042 634.422 247.74C633.38 246.438 632.208 245.005 630.906 243.443C629.604 242.141 627.911 240.448 625.828 238.365C623.745 236.281 621.271 233.938 618.406 231.333ZM860.984 414.536C868.276 414.536 875.047 413.755 881.297 412.193C886.505 410.891 891.453 408.807 896.141 405.943C901.089 402.818 904.344 398.26 905.906 392.271C911.115 393.313 915.542 394.224 919.188 395.005C922.833 395.526 925.958 396.047 928.562 396.568C931.427 397.349 933.901 397.87 935.984 398.13C938.068 398.651 940.542 399.172 943.406 399.693C946.01 400.214 949.135 400.865 952.781 401.646C956.688 402.167 961.245 402.948 966.453 403.99C962.547 403.469 958.51 403.859 954.344 405.161C950.438 406.464 946.661 407.896 943.016 409.458C938.849 411.281 934.943 413.495 931.297 416.099C928.953 417.661 926.219 420.005 923.094 423.13C920.229 426.255 916.062 429.25 910.594 432.115C905.125 434.979 897.833 437.453 888.719 439.536C879.865 441.359 868.406 442.01 854.344 441.49C837.417 440.969 823.224 437.974 811.766 432.505C800.307 426.776 791.062 419.875 784.031 411.802C777 403.469 771.922 394.484 768.797 384.849C765.672 375.214 763.979 366.229 763.719 357.896C763.458 349.563 765.932 340.839 771.141 331.724C776.349 322.609 783.641 314.276 793.016 306.724C802.651 299.172 814.24 293.052 827.781 288.365C841.323 283.417 856.167 280.943 872.312 280.943C881.688 280.943 890.281 282.115 898.094 284.458C906.167 286.542 913.458 289.406 919.969 293.052C926.74 296.698 932.599 300.865 937.547 305.552C942.495 309.979 946.661 314.536 950.047 319.224C953.432 324.172 956.297 329.38 958.641 334.849C960.724 339.536 962.417 344.875 963.719 350.865C965.021 356.854 965.411 362.974 964.891 369.224C945.099 369.745 929.083 370.135 916.844 370.396C904.865 370.656 895.49 370.786 888.719 370.786H871.141H857.859C853.172 370.786 847.052 370.917 839.5 371.177C831.948 371.438 822.703 371.828 811.766 372.349C813.068 382.766 816.323 390.839 821.531 396.568C827 402.036 832.729 406.203 838.719 409.068C845.49 412.193 852.911 414.016 860.984 414.536ZM825.828 344.224C834.161 344.745 841.062 345.135 846.531 345.396C852.26 345.656 856.948 345.917 860.594 346.177C864.5 346.438 867.625 346.568 869.969 346.568H879.734C886.245 346.568 898.354 346.177 916.062 345.396C915.281 333.938 912.807 325.214 908.641 319.224C904.734 313.234 900.568 308.807 896.141 305.943C890.932 302.818 885.203 300.995 878.953 300.474C862.026 300.734 849.396 304.25 841.062 311.021C832.99 317.792 827.911 328.859 825.828 344.224ZM976.609 290.318C981.557 290.578 985.984 290.708 989.891 290.708C994.057 290.448 997.573 290.188 1000.44 289.927C1003.82 289.667 1006.82 289.406 1009.42 289.146C1013.33 288.625 1017.36 287.974 1021.53 287.193C1025.18 286.672 1028.95 286.021 1032.86 285.24C1037.03 284.198 1041.06 283.026 1044.97 281.724C1043.41 285.63 1042.1 289.016 1041.06 291.88C1040.02 294.745 1039.24 297.219 1038.72 299.302C1037.94 301.646 1037.55 303.599 1037.55 305.161C1037.29 306.984 1037.16 309.198 1037.16 311.802C1036.9 316.229 1036.9 323.391 1037.16 333.286C1050.7 321.568 1062.03 312.453 1071.14 305.943C1080.52 299.432 1087.94 294.354 1093.41 290.708C1099.92 286.542 1104.99 283.807 1108.64 282.505C1118.28 280.943 1126.74 283.156 1134.03 289.146C1137.16 291.75 1140.15 295.266 1143.02 299.693C1145.88 303.859 1148.35 309.458 1150.44 316.49C1152.52 323.521 1154.08 331.984 1155.12 341.88C1156.17 351.516 1156.3 363.104 1155.52 376.646C1150.05 377.167 1145.1 377.688 1140.67 378.208C1136.51 378.729 1132.99 379.12 1130.12 379.38C1126.74 379.901 1123.61 380.161 1120.75 380.161L1110.2 381.333C1106.56 381.854 1102 382.375 1096.53 382.896C1091.32 383.156 1084.94 383.677 1077.39 384.458C1088.33 375.604 1095.36 367.922 1098.48 361.411C1101.87 354.641 1103.3 349.042 1102.78 344.615C1102.26 339.667 1099.92 335.37 1095.75 331.724C1090.8 328.859 1085.46 327.818 1079.73 328.599C1074.79 329.12 1069.06 331.333 1062.55 335.24C1056.04 339.146 1049.14 346.438 1041.84 357.115C1042.36 373.781 1042.89 387.583 1043.41 398.521C1044.19 409.458 1044.84 418.313 1045.36 425.083C1046.14 432.896 1046.79 439.016 1047.31 443.443C1048.09 447.349 1049.66 451.516 1052 455.943C1053.82 459.589 1056.43 463.625 1059.81 468.052C1063.2 472.479 1067.62 476.906 1073.09 481.333C1061.64 480.813 1052.26 480.813 1044.97 481.333C1040.54 481.594 1036.64 481.854 1033.25 482.115C1029.6 482.635 1025.7 483.156 1021.53 483.677C1017.89 484.198 1013.59 484.719 1008.64 485.24C1003.95 486.021 998.745 486.802 993.016 487.583C995.099 484.719 996.792 481.333 998.094 477.427C999.396 473.781 1000.44 470.266 1001.22 466.88C1002.26 462.974 1003.04 458.938 1003.56 454.771C1003.82 451.125 1003.95 445.656 1003.95 438.365C1004.21 431.073 1004.08 422.87 1003.56 413.755C1003.3 404.38 1002.91 394.745 1002.39 384.849C1001.87 374.693 1001.22 365.188 1000.44 356.333C999.656 347.479 998.745 339.797 997.703 333.286C996.922 326.516 996.01 321.828 994.969 319.224C993.667 316.099 992.104 312.974 990.281 309.849C988.719 306.984 986.766 303.99 984.422 300.865C982.078 297.479 979.474 293.964 976.609 290.318Z" fill="black"/>
<path d="M1203.5 593.5C1203.5 572.833 1206.83 557.167 1213.5 546.5C1220.5 535.833 1232.5 530.5 1249.5 530.5H1280.5V188.5H1250C1232.67 188.5 1220.5 183.333 1213.5 173C1206.83 162.333 1203.5 146.5 1203.5 125.5H1354V593.5H1203.5Z" fill="#F6E05E"/>
</svg>
